<?xml version="1.0" standalone="no"?>
<!DOCTYPE svg PUBLIC "-//W3C//DTD SVG 20010904//EN"
 "http://www.w3.org/TR/2001/REC-SVG-20010904/DTD/svg10.dtd">
<svg version="1.0" xmlns="http://www.w3.org/2000/svg"
 width="95.000000pt" height="95.000000pt" viewBox="0 0 95.000000 95.000000"
 preserveAspectRatio="xMidYMid meet">
<metadata>
Created by potrace 1.14, written by Peter Selinger 2001-2017
</metadata>
<g transform="translate(0.000000,95.000000) scale(0.100000,-0.100000)"
fill="#000000" stroke="none">
<path d="M236 860 c-20 -24 -216 -377 -216 -390 0 -6 52 -99 116 -206 l115
-195 231 3 232 3 23 40 c112 188 203 361 198 374 -4 9 -56 101 -117 204 l-111
188 -229 -3 c-189 -2 -232 -6 -242 -18z m522 -222 l93 -158 -82 -147 c-45 -82
-88 -155 -96 -164 -11 -13 -43 -15 -195 -17 l-183 -1 -87 147 c-48 81 -90 154
-93 163 -4 9 30 79 84 175 l91 160 187 0 187 -1 94 -157z"/>
<path d="M310 735 c-7 -8 -44 -70 -82 -137 l-68 -122 66 -115 c37 -64 73 -125
80 -136 13 -18 26 -20 170 -20 l155 -1 45 74 c24 40 44 74 44 77 0 2 16 30 35
63 l36 59 -78 134 -79 134 -155 3 c-131 2 -158 0 -169 -13z"/>
</g>
</svg>
